<svg viewBox="0 0 1000 760" xmlns="http://www.w3.org/2000/svg" role="img" aria-label="thepdf.ink logo">
  <defs>
    <linearGradient id="mark" gradientUnits="userSpaceOnUse" x1="380" y1="130" x2="740" y2="530">
      <stop offset="0" stop-color="#225c71"/>
      <stop offset="0.33" stop-color="#356f93"/>
      <stop offset="0.58" stop-color="#5c5d94"/>
      <stop offset="0.80" stop-color="#9c4c8d"/>
      <stop offset="1" stop-color="#c74984"/>
    </linearGradient>
    <linearGradient id="page" gradientUnits="userSpaceOnUse" x1="360" y1="390" x2="500" y2="565">
      <stop offset="0" stop-color="#5aa9cd"/>
      <stop offset="1" stop-color="#2b7ba6"/>
    </linearGradient>
    <linearGradient id="fold" gradientUnits="userSpaceOnUse" x1="464" y1="384" x2="500" y2="476">
      <stop offset="0" stop-color="#9ad7ec"/>
      <stop offset="1" stop-color="#63b3d6"/>
    </linearGradient>
  </defs>

  <!-- Stem -->
  <path d="M 402 150 C 372 150, 352 172, 352 206 L 352 512 C 352 545, 374 562, 404 562 C 434 562, 452 543, 452 512 L 452 206 C 452 172, 432 150, 402 150 Z" fill="url(#mark)"/>

  <!-- Bowl (solid drop) -->
  <path d="M 500 82 C 612 120, 726 180, 762 304 C 796 412, 752 510, 636 526 C 560 536, 486 512, 440 452 C 402 402, 388 330, 404 262 C 424 178, 452 118, 500 82 Z" fill="url(#mark)"/>

  <!-- White inner ink drop -->
  <path d="M 562 190 C 516 258, 478 318, 478 372 C 478 430, 524 472, 574 472 C 626 472, 664 428, 664 372 C 664 316, 614 250, 562 190 Z" fill="#ffffff"/>

  <!-- Page with folded corner -->
  <path d="M 356 405 L 464 384 L 464 476 L 500 476 L 500 562 L 372 562 Z" fill="url(#page)"/>
  <path d="M 464 476 L 464 384 L 500 476 Z" fill="url(#fold)"/>

  <!-- Wordmark (outlined, font-independent) -->
  <path d="M199.76 643.68L199.76 678.07Q199.76 681.66 201.49 683.26Q203.23 684.87 207.32 684.87L215.66 684.87L215.66 700.00L204.37 700.00Q181.67 700.00 181.67 677.93L181.67 643.68L173.21 643.68L173.21 628.93L181.67 628.93L181.67 611.37L199.76 611.37L199.76 628.93L215.66 628.93L215.66 643.68L199.76 643.68ZM268.64 627.90Q276.74 627.90 283.01 631.43Q289.30 634.96 292.83 641.83Q296.36 648.69 296.36 658.31L296.36 700.00L278.40 700.00L278.40 660.75Q278.40 652.28 274.15 647.73Q269.92 643.18 262.62 643.18Q255.17 643.18 250.88 647.73Q246.59 652.28 246.59 660.75L246.59 700.00L228.63 700.00L228.63 605.07L246.59 605.07L246.59 637.78Q250.04 633.17 255.81 630.55Q261.58 627.90 268.64 627.90ZM379.49 662.92Q379.49 666.77 378.97 669.85L327.01 669.85Q327.65 677.55 332.40 681.92Q337.15 686.27 344.07 686.27Q354.07 686.27 358.32 677.67L377.68 677.67Q374.60 687.93 365.88 694.55Q357.16 701.16 344.45 701.16Q334.19 701.16 326.05 696.61Q317.91 692.04 313.34 683.70Q308.79 675.37 308.79 664.46Q308.79 653.44 313.28 645.10Q317.77 636.76 325.85 632.27Q333.95 627.78 344.45 627.78Q354.59 627.78 362.61 632.15Q370.63 636.50 375.06 644.52Q379.49 652.54 379.49 662.92ZM360.89 657.79Q360.75 650.87 355.88 646.70Q351.00 642.54 343.95 642.54Q337.27 642.54 332.73 646.58Q328.18 650.61 327.13 657.79L360.89 657.79ZM410.53 639.19Q413.98 634.32 420.07 631.05Q426.16 627.78 434.00 627.78Q443.10 627.78 450.48 632.27Q457.85 636.76 462.14 645.04Q466.45 653.30 466.45 664.20Q466.45 675.11 462.14 683.52Q457.85 691.92 450.48 696.55Q443.10 701.16 434.00 701.16Q426.16 701.16 420.19 697.96Q414.24 694.75 410.53 689.86L410.53 733.87L392.57 733.87L392.57 628.93L410.53 628.93L410.53 639.19ZM448.11 664.20Q448.11 657.79 445.47 653.12Q442.84 648.43 438.55 646.00Q434.26 643.56 429.25 643.56Q424.38 643.56 420.07 646.06Q415.78 648.57 413.16 653.32Q410.53 658.05 410.53 664.46Q410.53 670.88 413.16 675.63Q415.78 680.38 420.07 682.88Q424.38 685.37 429.25 685.37Q434.26 685.37 438.55 682.80Q442.84 680.24 445.47 675.51Q448.11 670.76 448.11 664.20ZM474.91 664.20Q474.91 653.44 479.20 645.10Q483.51 636.76 490.95 632.27Q498.38 627.78 507.50 627.78Q514.42 627.78 520.71 630.81Q527.01 633.82 530.71 638.81L530.71 605.07L548.93 605.07L548.93 700.00L530.71 700.00L530.71 689.48Q527.39 694.75 521.35 697.96Q515.32 701.16 507.36 701.16Q498.38 701.16 490.95 696.55Q483.51 691.92 479.20 683.52Q474.91 675.11 474.91 664.20ZM530.86 664.46Q530.86 657.93 528.29 653.26Q525.72 648.57 521.35 646.06Q516.98 643.56 511.99 643.56Q506.98 643.56 502.75 646.00Q498.52 648.43 495.88 653.12Q493.25 657.79 493.25 664.20Q493.25 670.62 495.88 675.43Q498.52 680.24 502.81 682.80Q507.12 685.37 511.99 685.37Q516.98 685.37 521.35 682.88Q525.72 680.38 528.29 675.71Q530.86 671.02 530.86 664.46ZM599.09 643.68L586.64 643.68L586.64 700.00L568.44 700.00L568.44 643.68L560.34 643.68L560.34 628.93L568.44 628.93L568.44 625.34Q568.44 612.25 575.88 606.10Q583.31 599.94 598.33 600.32L598.33 615.46Q591.77 615.34 589.21 617.64Q586.64 619.95 586.64 625.98L586.64 628.93L599.09 628.93L599.09 643.68ZM618.71 700.90Q613.84 700.90 610.69 697.90Q607.57 694.87 607.57 690.38Q607.57 685.89 610.69 682.88Q613.84 679.86 618.71 679.86Q623.46 679.86 626.53 682.88Q629.61 685.89 629.61 690.38Q629.61 694.87 626.53 697.90Q623.46 700.90 618.71 700.90ZM653.22 620.47Q648.47 620.47 645.33 617.46Q642.20 614.43 642.20 609.94Q642.20 605.45 645.33 602.45Q648.47 599.42 653.22 599.42Q657.97 599.42 661.10 602.45Q664.25 605.45 664.25 609.94Q664.25 614.43 661.10 617.46Q657.97 620.47 653.22 620.47ZM662.08 628.93L662.08 700.00L644.12 700.00L644.12 628.93L662.08 628.93ZM719.15 627.90Q731.86 627.90 739.68 635.92Q747.51 643.94 747.51 658.31L747.51 700.00L729.55 700.00L729.55 660.75Q729.55 652.28 725.30 647.73Q721.08 643.18 713.78 643.18Q706.32 643.18 702.03 647.73Q697.75 652.28 697.75 660.75L697.75 700.00L679.79 700.00L679.79 628.93L697.75 628.93L697.75 637.78Q701.33 633.17 706.91 630.55Q712.50 627.90 719.15 627.90ZM806.65 700.00L782.54 669.73L782.54 700.00L764.58 700.00L764.58 605.07L782.54 605.07L782.54 659.07L806.39 628.93L829.74 628.93L798.43 664.60L830.00 700.00L806.65 700.00Z" fill="#1b2430"/>

  <!-- Ink-splash accent after the wordmark -->
  <circle cx="856" cy="686" r="13" fill="#1b2430"/>
  <circle cx="882" cy="654" r="6.5" fill="#1b2430"/>
</svg>
