<svg viewBox="0 0 1024 1024" xmlns="http://www.w3.org/2000/svg" role="img" aria-label="thepdf.ink app icon">
  <defs>
    <linearGradient id="mark" gradientUnits="userSpaceOnUse" x1="380" y1="130" x2="740" y2="530">
      <stop offset="0" stop-color="#225c71"/>
      <stop offset="0.33" stop-color="#356f93"/>
      <stop offset="0.58" stop-color="#5c5d94"/>
      <stop offset="0.80" stop-color="#9c4c8d"/>
      <stop offset="1" stop-color="#c74984"/>
    </linearGradient>
    <linearGradient id="page" gradientUnits="userSpaceOnUse" x1="360" y1="390" x2="500" y2="565">
      <stop offset="0" stop-color="#5aa9cd"/>
      <stop offset="1" stop-color="#2b7ba6"/>
    </linearGradient>
    <linearGradient id="fold" gradientUnits="userSpaceOnUse" x1="464" y1="384" x2="500" y2="476">
      <stop offset="0" stop-color="#9ad7ec"/>
      <stop offset="1" stop-color="#63b3d6"/>
    </linearGradient>
    <linearGradient id="bg" x1="0" y1="0" x2="1" y2="1">
      <stop offset="0" stop-color="#141c29"/>
      <stop offset="1" stop-color="#0c121c"/>
    </linearGradient>
  </defs>
  <rect width="1024" height="1024" fill="url(#bg)"/>
  <g transform="translate(70,150) scale(1.05)">
    <path d="M 402 150 C 372 150, 352 172, 352 206 L 352 512 C 352 545, 374 562, 404 562 C 434 562, 452 543, 452 512 L 452 206 C 452 172, 432 150, 402 150 Z" fill="url(#mark)"/>
    <path d="M 500 82 C 612 120, 726 180, 762 304 C 796 412, 752 510, 636 526 C 560 536, 486 512, 440 452 C 402 402, 388 330, 404 262 C 424 178, 452 118, 500 82 Z" fill="url(#mark)"/>
    <path d="M 562 190 C 516 258, 478 318, 478 372 C 478 430, 524 472, 574 472 C 626 472, 664 428, 664 372 C 664 316, 614 250, 562 190 Z" fill="#ffffff"/>
    <path d="M 356 405 L 464 384 L 464 476 L 500 476 L 500 562 L 372 562 Z" fill="url(#page)"/>
    <path d="M 464 476 L 464 384 L 500 476 Z" fill="url(#fold)"/>
  </g>
</svg>
